<svg version="1.1" xmlns="http://www.w3.org/2000/svg" xmlns:xlink="http://www.w3.org/1999/xlink" x="0px" y="0px" viewBox="0 0 512 512" enable-background="new 0 0 512 512" xml:space="preserve"> <path id="currency-euro-icon" d="M406.083,135.096l16.661-68.652c-152.994-48.867-251.302,16.1-277.582,129.885h-35.611
l-7.955,41.445h37.265c-0.775,9.718-1.159,19.532-0.94,29.358H97.461l-8.205,41.445h53.313
c24.893,118.996,151.238,187.104,275.416,136.541l-19.126-69.82c-66.99,28.207-134.71,8.282-153.78-66.721h130.27l7.975-41.445
H239.416c-0.396-9.852-0.234-20.216,0.296-29.358h148.622l7.935-41.445H245.836C266.243,117.676,328.515,110.785,406.083,135.096z"></path> </svg>
