<?xml version="1.0" encoding="UTF-8" standalone="no"?>
<!-- Created with Inkscape (http://www.inkscape.org/) -->
<svg id="svg2" xmlns:rdf="http://www.w3.org/1999/02/22-rdf-syntax-ns#" xmlns="http://www.w3.org/2000/svg" xml:space="preserve" viewBox="0 0 1046.2 1046.2" version="1.1" xmlns:cc="http://creativecommons.org/ns#" xmlns:dc="http://purl.org/dc/elements/1.1/"><metadata id="metadata8"><rdf:RDF><cc:Work rdf:about=""><dc:format>image/svg+xml</dc:format><dc:type rdf:resource="http://purl.org/dc/dcmitype/StillImage"/><dc:title/></cc:Work></rdf:RDF></metadata><g id="g10" transform="matrix(1.25,0,0,-1.25,0,1046.25)"><g id="g12" transform="scale(0.1,0.1)"><path id="path14" fill-rule="nonzero" fill="#000" d="m6280,8370c286.67,0,556.67-55,810-165s475-260,665-450,340-411.67,450-665,165-523.33,165-810v-4180c0-286.67-55-558.33-165-815-110-256.7-260-480-450-670s-411.7-340-665-450-523.3-165-810-165h-4190c-286.7,0-556.7,55-810,165s-475,260-665,450-340,413.3-450,670-165,528.3-165,815v4180c0,286.67,55,556.67,165,810s260,475,450,665,411.67,340,665,450,523.33,165,810,165h4190zm-530-1830-880,0c-173.33,0-333.33-30-480-90s-273.33-138.33-380-235-191.67-208.33-255-335-95-253.33-95-380v-530h-780v-1040h780v-2100h1050v2100h780v1040h-780v260c0,86.67,31.67,153.33,95,200s118.33,70,165,70h780v1040"/></g></g></svg>
