<?xml version="1.0" encoding="UTF-8" standalone="no"?>
<!-- Created with Inkscape (http://www.inkscape.org/) -->
<svg id="svg2991" xmlns:rdf="http://www.w3.org/1999/02/22-rdf-syntax-ns#" xmlns="http://www.w3.org/2000/svg" xml:space="preserve" viewBox="0 0 1046.2 1046.2" version="1.1" xmlns:cc="http://creativecommons.org/ns#" xmlns:dc="http://purl.org/dc/elements/1.1/"><metadata id="metadata2997"><rdf:RDF><cc:Work rdf:about=""><dc:format>image/svg+xml</dc:format><dc:type rdf:resource="http://purl.org/dc/dcmitype/StillImage"/><dc:title/></cc:Work></rdf:RDF></metadata><g id="g2999" transform="matrix(1.25,0,0,-1.25,0,1046.25)"><g id="g3001" transform="scale(0.1,0.1)"><path id="path3003" fill-rule="nonzero" fill="#000" d="m6280,8370c286.67,0,556.67-55,810-165s475-260,665-450,340-411.67,450-665,165-523.33,165-810v-4180c0-286.67-55-558.33-165-815-110-256.7-260-480-450-670s-411.7-340-665-450-523.3-165-810-165h-4190c-286.7,0-556.7,55-810,165s-475,260-665,450-340,413.3-450,670-165,528.3-165,815v4180c0,286.67,55,556.67,165,810s260,475,450,665,411.67,340,665,450,523.33,165,810,165h4190zm-1860-6350c300,260,450,560,450,900,0,220-50,400-150,540s-208.33,261.67-325,365-225,196.67-325,280-150,175-150,275c0,113.33,50,215,150,305s203.33,191.67,310,305c66.67,73.33,125,170,175,290s75,260,75,420c0,93.33-11.67,183.33-35,270s-55,176.67-95,270c-80,166.67-196.67,296.67-350,390h430l430,260h-1390c-93.33,0-190-6.67-290-20s-200-30-300-50c-293.33-60-540-210-740-450-200-233.33-300-496.67-300-790,0-320,110-580,330-780,226.67-206.67,496.67-310,810-310h105c36.67,0,78.33,3.33,125,10-6.67-13.33-15-35-25-65s-18.33-51.67-25-65c-13.33-53.33-20-100-20-140,0-153.33,66.67-310,200-470-306.67-6.67-630-60-970-160-173.33-53.33-326.67-130-460-230s-233.33-216.67-300-350c-80-153.33-120-293.33-120-420,0-186.67,46.67-343.33,140-470s213.33-228.33,360-305,303.33-131.67,470-165,326.67-50,480-50c560,0,1003.3,136.67,1330,410zm2500,4050-810,0,0,820-410,0,0-820-810,0,0-400,810,0,0-810,410,0,0,810,810,0,0,400zm-2910-690c0-213.33-45-383.33-135-510s-238.33-190-445-190c-140,0-265,41.67-375,125s-201.67,188.33-275,315-130,261.67-170,405-60,275-60,395c0,213.33,53.33,386.67,160,520,106.67,146.67,260,220,460,220,140,0,265-43.33,375-130s198.33-196.67,265-330c133.33-280,200-553.33,200-820zm280-2380c26.67-40,46.67-76.67,60-110s25-70,35-110,15-83.33,15-130c0-140-30-258.33-90-355s-138.33-173.33-235-230-203.33-98.33-320-125-235-40-355-40c-133.33,0-268.33,15-405,45s-265,78.33-385,145-218.33,156.67-295,270-115,243.33-115,390c0,193.33,60,348.33,180,465s266.67,201.67,440,255c226.67,66.67,453.33,100,680,100,80,0,133.33-3.33,160-10l90-60c60-40,96.67-66.67,110-80l90-70c46.67-33.33,83.33-60,110-80l80-80c40-33.33,68.33-63.33,85-90s38.33-60,65-100"/></g></g></svg>
