<?xml version="1.0" encoding="UTF-8" standalone="no"?>
<!-- Created with Inkscape (http://www.inkscape.org/) -->
<svg id="svg3005" xmlns:rdf="http://www.w3.org/1999/02/22-rdf-syntax-ns#" xmlns="http://www.w3.org/2000/svg" xml:space="preserve" viewBox="0 0 1046.2 1046.2" version="1.1" xmlns:cc="http://creativecommons.org/ns#" xmlns:dc="http://purl.org/dc/elements/1.1/"><metadata id="metadata3011"><rdf:RDF><cc:Work rdf:about=""><dc:format>image/svg+xml</dc:format><dc:type rdf:resource="http://purl.org/dc/dcmitype/StillImage"/><dc:title/></cc:Work></rdf:RDF></metadata><g id="g3013" transform="matrix(1.25,0,0,-1.25,0,1046.25)"><g id="g3015" transform="scale(0.1,0.1)"><path id="path3017" fill-rule="nonzero" fill="#000" d="m4620,4300c-80-66.67-140-133.33-180-200-86.67-73.33-185-133.33-295-180s-228.33-70-355-70c-160,0-313.33,36.67-460,110l-710-290,220,850c-46.67,126.67-70,250-70,370,0,146.67,26.67,283.33,80,410s126.67,236.67,220,330,201.67,166.67,325,220,255,80,395,80,271.67-26.67,395-80,230-126.67,320-220,161.67-203.33,215-330,80-263.33,80-410c0-226.67-60-423.33-180-590zm1660,4070c286.67,0,556.67-55,810-165s475-260,665-450,340-411.67,450-665,165-523.33,165-810v-4180c0-286.67-55-558.33-165-815-110-256.7-260-480-450-670s-411.7-340-665-450-523.3-165-810-165h-4190c-286.7,0-556.7,55-810,165s-475,260-665,450-340,413.3-450,670-165,528.3-165,815v4180c0,286.67,55,556.67,165,810s260,475,450,665,411.67,340,665,450,523.33,165,810,165h4190zm-550-5770c166.67,86.67,300,211.67,400,375s150,341.67,150,535c0,146.67-26.67,283.33-80,410s-125,236.67-215,330-196.67,166.67-320,220-255,80-395,80c-6.67,0-13.33-1.67-20-5s-13.33-5-20-5c33.33,133.33,50,260,50,380,0,213.33-40,415-120,605s-188.33,355-325,495-296.67,250-480,330-378.33,120-585,120c-213.33,0-411.67-40-595-120s-341.67-190-475-330-240-305-320-495-120-391.67-120-605c0-226.67,40-433.33,120-620l-290-1150,1070,350c93.33-40,190-71.67,290-95s206.67-35,320-35c173.33,0,340,30,500,90,13.33-233.33,93.33-438.33,240-615s326.67-288.33,540-335l460-600,220,690zm-460,1470c146.67,0,270-51.67,370-155s150-231.67,150-385c0-106.67-25-200-75-280s-115-143.33-195-190l-140-400-200,340c-126.67,26.67-230,88.33-310,185s-120,211.67-120,345c0,100,26.67,196.67,80,290l60,60c20,20,36.67,43.33,50,70,100,80,210,120,330,120"/></g></g></svg>
