<?xml version="1.0" encoding="UTF-8" standalone="no"?>
<!-- Created with Inkscape (http://www.inkscape.org/) -->
<svg id="svg3033" xmlns:rdf="http://www.w3.org/1999/02/22-rdf-syntax-ns#" xmlns="http://www.w3.org/2000/svg" xml:space="preserve" viewBox="0 0 1046.2 1046.2" version="1.1" xmlns:cc="http://creativecommons.org/ns#" xmlns:dc="http://purl.org/dc/elements/1.1/"><metadata id="metadata3039"><rdf:RDF><cc:Work rdf:about=""><dc:format>image/svg+xml</dc:format><dc:type rdf:resource="http://purl.org/dc/dcmitype/StillImage"/><dc:title/></cc:Work></rdf:RDF></metadata><g id="g3041" transform="matrix(1.25,0,0,-1.25,0,1046.25)"><g id="g3043" transform="scale(0.1,0.1)"><path id="path3045" fill-rule="nonzero" fill="#000" d="m6280,8370c286.67,0,556.67-55,810-165s475-260,665-450,340-411.67,450-665,165-523.33,165-810v-4180c0-286.67-55-558.33-165-815-110-256.7-260-480-450-670s-411.7-340-665-450-523.3-165-810-165h-4190c-286.7,0-556.7,55-810,165s-475,260-665,450-340,413.3-450,670-165,528.3-165,815v4180c0,286.67,55,556.67,165,810s260,475,450,665,411.67,340,665,450,523.33,165,810,165h4190zm-3400-3140-1050,0,0-3400,1050,0,0,3400zm-520,270c140,0,261.67,50,365,150s155,223.33,155,370-51.67,270-155,370-225,150-365,150c-146.67,0-271.67-50-375-150s-155-223.33-155-370,51.67-270,155-370,228.33-150,375-150zm4180-1700c0,240-66.67,475-200,705s-306.67,405-520,525c-193.33,106.67-418.33,163.33-675,170s-488.33-36.67-695-130v160h-1050v-3400h1050v2080l430,210c53.33,26.67,126.67,40,220,40s163.33-16.67,210-50c40-20,80-63.33,120-130s60-126.67,60-180v-1970h1050v1970"/></g></g></svg>
