<svg version="1.1" xmlns="http://www.w3.org/2000/svg" xmlns:xlink="http://www.w3.org/1999/xlink" x="0px" y="0px" viewBox="0 0 512 512" enable-background="new 0 0 512 512" xml:space="preserve"> <path id="location-15-icon" d="M256,51.235c-59.307,0-107.387,48.08-107.387,107.389c0,59.307,46.998,128.232,107.387,231.641
c60.389-103.408,107.387-172.334,107.387-231.641C363.387,99.315,315.309,51.235,256,51.235z M256,194.528
c-21.27,0-38.511-17.242-38.511-38.512c0-21.268,17.241-38.51,38.511-38.51s38.512,17.242,38.512,38.51
C294.512,177.286,277.27,194.528,256,194.528z M313.177,440.015c0,11.459-25.599,20.75-57.178,20.75s-57.178-9.291-57.178-20.75
c0-11.461,25.599-20.75,57.178-20.75S313.177,428.554,313.177,440.015z"></path> </svg>
