<svg version="1.1" xmlns="http://www.w3.org/2000/svg" xmlns:xlink="http://www.w3.org/1999/xlink" x="0px" y="0px" viewBox="0 0 512 512" enable-background="new 0 0 512 512" xml:space="preserve"> <path id="target-icon" d="M256,90c44.338,0,86.024,17.268,117.378,48.622C404.732,169.976,422,211.662,422,256
c0,44.341-17.268,86.027-48.621,117.381C342.025,404.733,300.34,422,256,422s-86.025-17.267-117.379-48.619
C107.268,342.027,90,300.341,90,256c0-44.338,17.268-86.024,48.622-117.378C169.976,107.268,211.662,90,256,90 M256,50
C142.233,50,50,142.233,50,256c0,113.774,92.233,206,206,206s206-92.226,206-206C462,142.233,369.767,50,256,50z M256,171.164
c46.778,0,84.836,38.058,84.836,84.836c0,46.778-38.058,84.835-84.836,84.835S171.165,302.778,171.165,256
C171.165,209.221,209.222,171.164,256,171.164 M256,131.164c-68.942,0-124.835,55.894-124.835,124.836
c0,68.947,55.893,124.835,124.835,124.835S380.836,324.947,380.836,256C380.836,187.058,324.942,131.164,256,131.164z M256,210.5
c-24.3,0-44,19.699-44,44c0,24.299,19.7,44,44,44c24.299,0,44-19.701,44-44C300,230.199,280.299,210.5,256,210.5z"></path> </svg>
