<?xml version="1.0" encoding="UTF-8" standalone="no"?>
<!-- Created with Inkscape (http://www.inkscape.org/) -->
<svg id="svg2" xmlns:rdf="http://www.w3.org/1999/02/22-rdf-syntax-ns#" xmlns="http://www.w3.org/2000/svg" xml:space="preserve" viewBox="0 0 1046.2 1046.2" version="1.1" xmlns:cc="http://creativecommons.org/ns#" xmlns:dc="http://purl.org/dc/elements/1.1/"><metadata id="metadata8"><rdf:RDF><cc:Work rdf:about=""><dc:format>image/svg+xml</dc:format><dc:type rdf:resource="http://purl.org/dc/dcmitype/StillImage"/><dc:title/></cc:Work></rdf:RDF></metadata><g id="g10" transform="matrix(1.25,0,0,-1.25,0,1046.25)"><g id="g12" transform="scale(0.1,0.1)"><path id="path14" fill-rule="nonzero" fill="#000" d="m6280,8370c286.67,0,556.67-55,810-165s475-260,665-450,340-411.67,450-665,165-523.33,165-810v-4180c0-286.67-55-558.33-165-815-110-256.7-260-480-450-670s-411.7-340-665-450-523.3-165-810-165h-4190c-286.7,0-556.7,55-810,165s-475,260-665,450-340,413.3-450,670-165,528.3-165,815v4180c0,286.67,55,556.67,165,810s260,475,450,665,411.67,340,665,450,523.33,165,810,165h4190zm-2360-5490c-133.33,0-253.33,53.33-360,160s-160,226.67-160,360v790h2090c133.33,0,255,53.33,365,160s165,226.67,165,360-55,253.33-165,360-231.67,160-365,160h-2090v790c0,133.33-53.33,253.33-160,360s-226.67,160-360,160-253.33-53.33-360-160-160-226.67-160-360v-2620c0-260,45-488.33,135-685s208.33-360,355-490,313.33-228.33,500-295,376.67-100,570-100h1570c133.33,0,255,55,365,165s165,231.67,165,365-55,253.33-165,360-231.67,160-365,160h-1570"/></g></g></svg>
