<?xml version="1.0" encoding="UTF-8" standalone="no"?>
<!-- Created with Inkscape (http://www.inkscape.org/) -->
<svg id="svg3047" xmlns:rdf="http://www.w3.org/1999/02/22-rdf-syntax-ns#" xmlns="http://www.w3.org/2000/svg" xml:space="preserve" viewBox="0 0 580 580" version="1.1" xmlns:cc="http://creativecommons.org/ns#" xmlns:dc="http://purl.org/dc/elements/1.1/"><metadata id="metadata3053"><rdf:RDF><cc:Work rdf:about=""><dc:format>image/svg+xml</dc:format><dc:type rdf:resource="http://purl.org/dc/dcmitype/StillImage"/><dc:title/></cc:Work></rdf:RDF></metadata><g id="g3055" transform="matrix(1.25,0,0,-1.25,0,580)"><g id="g3057" transform="matrix(0.1,0,0,0.1,101.20839,7.9981978)"><path id="path3059" fill-rule="nonzero" fill="#000" d="m1548.9,2973.8c0-102.58,83.25-185.83,185.83-185.83s185.83,83.25,185.83,185.83v0.11c0,102.57-83.25,185.83-185.83,185.83s-185.83-83.26-185.83-185.83v-0.11zm506.33,187.49c510.41,921.03,597.71,1288.4,548.66,1316.7-48.88,28.27-323.37-230.72-865.22-1132.6,134.98-1.42,252.58-75.08,316.56-184.08zm-692.21-187.48c0,66.57,17.74,128.97,48.52,183.09-1050.5-18.6-1411.5-126.6-1411.5-183.1,0-56.49,361-164.51,1411.4-183.05-30.65,54.07-48.43,116.44-48.43,183.06zm692.6-186.96c-63.8-109.13-181.27-182.92-316.34-184.54,541.54-900.83,815.67-1159.6,864.7-1131.4,48.95,28.31-38.23,395.45-548.36,1315.9zm-506.74-228.27,0-2558.6,371.71,0,0,1968.1c-106.63,157.6-229.6,351.68-371.71,590.5"/></g></g></svg>
