<?xml version="1.0" standalone="no"?>
<!DOCTYPE svg PUBLIC "-//W3C//DTD SVG 1.1//EN" "http://www.w3.org/Graphics/SVG/1.1/DTD/svg11.dtd" >
<!--
2013-12-3: Created.
-->
<svg xmlns="http://www.w3.org/2000/svg">
<metadata>
Created by FontForge 20120731 at Tue Dec  3 11:51:34 2013
 By Axel Haustant
Created by Axel Haustant with FontForge 2.0 (http://fontforge.sf.net)
</metadata>
<defs>
<font id="icons" horiz-adv-x="512" >
  <font-face 
    font-family="icons"
    font-weight="500"
    font-stretch="normal"
    units-per-em="512"
    panose-1="2 0 6 3 0 0 0 0 0 0"
    ascent="448"
    descent="-64"
    bbox="0 -66 583 448"
    underline-thickness="25.6"
    underline-position="-51.2"
    unicode-range="U+F100-F119"
  />
    <missing-glyph />
    <glyph glyph-name="uniF100" unicode="&#xf100;" horiz-adv-x="406" 
d="M120 374c0 13 11 24 24 24c16 0 27 -15 23 -30c-2 -6 -1 -13 2 -18c7 -11 19 -18 34 -18s26 7 33 18c3 5 5 12 3 18c-4 15 7 30 23 30c13 0 24 -11 24 -24c0 -12 -8 -22 -19 -24c-5 -1 -10 -4 -13 -9c-11 -18 5 -35 18 -51c-40 -21 -99 -21 -139 0c13 17 29 32 18 51
c-3 5 -8 8 -13 9c-11 2 -18 12 -18 24zM347 133c-9 0 -19 -6 -21 -20c-2 -11 5 -19 13 -23l41 -19c9 -4 13 -15 9 -24s-15 -12 -24 -8l-43 19c-6 3 -13 1 -17 -6c-18 -30 -52 -60 -102 -66c-51 6 -86 37 -104 68c-4 6 -10 6 -15 4l-43 -19c-9 -4 -20 -1 -24 8s0 20 9 24
l41 19c9 4 15 13 13 25s-12 18 -22 18h-40c-10 0 -18 8 -18 18s8 17 18 17h40c9 0 19 6 21 19c1 10 -5 19 -13 22l-37 15c-9 4 -15 14 -11 23s15 14 24 10l38 -15c5 -2 12 -1 16 8s8 16 13 23c35 -16 64 -23 94 -23s59 7 94 23c5 -7 9 -15 13 -24c3 -8 9 -9 15 -7l39 15
c9 4 19 -1 23 -10s-1 -19 -10 -23l-38 -15c-8 -3 -15 -11 -13 -23c2 -11 11 -18 21 -18h41c10 0 18 -7 18 -17s-8 -18 -18 -18h-41z" />
    <glyph glyph-name="uniF101" unicode="&#xf101;" horiz-adv-x="448" 
d="M420 272h-112v28c0 15 -13 28 -28 28h-112c-15 0 -28 -13 -28 -28v-28h-112c-15 0 -28 -13 -28 -28v-252c0 -15 13 -28 28 -28h392c15 0 28 13 28 28v252c0 15 -13 28 -28 28zM168 300v0h112v0v-28h-112v28zM420 160h-56v-42c0 -8 -6 -14 -14 -14h-28c-8 0 -14 6 -14 14
v42h-168v-42c0 -8 -6 -14 -14 -14h-28c-8 0 -14 6 -14 14v42h-56v28h392v-28z" />
    <glyph glyph-name="uniF102" unicode="&#xf102;" horiz-adv-x="387" 
d="M107 -14h-107v104h107v-104zM247 139v-153h-108v153h108zM385 206v-220h-108v220h108zM387 398l-16 -87l-19 19l-165 -161l-49 47l-100 -100l-33 32l134 134l48 -45l132 126l-19 20z" />
    <glyph glyph-name="uniF103" unicode="&#xf103;" horiz-adv-x="421" 
d="M286 87c18 4 43 10 70 13c1 6 2 12 2 18v8v33c-12 -30 -38 -55 -72 -72zM179 71c99 0 179 58 179 130s-80 130 -179 130s-179 -58 -179 -130s80 -130 179 -130zM30 201c0 21 23 37 52 37s52 -16 52 -37s-23 -38 -52 -38s-52 17 -52 38zM328 201c0 -21 -23 -38 -52 -38
s-52 17 -52 38s23 37 52 37s52 -16 52 -37zM127 130c0 21 23 38 52 38s52 -17 52 -38s-23 -38 -52 -38s-52 17 -52 38zM166 201c0 5 6 9 13 9s13 -4 13 -9s-6 -10 -13 -10s-13 5 -13 10zM231 271c0 -21 -23 -38 -52 -38s-52 17 -52 38s23 38 52 38s52 -17 52 -38zM369 95
c-48 -4 -108 -20 -135 -27c-17 -4 -36 -6 -55 -6c-84 0 -155 42 -179 98v-36v-6c0 -72 80 -130 179 -130c33 0 63 7 89 18c99 26 153 14 153 14v73c-12 4 -31 4 -52 2z" />
    <glyph glyph-name="uniF104" unicode="&#xf104;" horiz-adv-x="444" 
d="M222 324l-222 -117l222 -117l129 65v-89c0 -47 47 -46 47 -46v23s-24 1 -24 23v102l70 39zM117 113v-47c0 -12 7 -27 23 -35l82 -35l70 35c16 8 36 23 35 35v47l-105 -51z" />
    <glyph glyph-name="uniF105" unicode="&#xf105;" horiz-adv-x="333" 
d="M317 313c-78 24 -140 18 -160 -61h150l-8 -42h-149c-1 -9 0 -19 0 -29h144l-8 -42h-130c19 -75 87 -94 154 -66l19 -70c-124 -51 -251 17 -276 136h-53l8 42h41c0 10 0 19 1 29h-38l8 42h36c26 114 124 179 277 130z" />
    <glyph glyph-name="uniF106" unicode="&#xf106;" horiz-adv-x="424" 
d="M304 28c3 -8 3 -17 8 -20s12 -1 19 -2c-4 -3 -8 -6 -13 -9c-3 -2 -3 -4 -2 -7c2 -5 4 -10 6 -17c-4 3 -7 5 -10 7c-8 6 -8 6 -17 0c-3 -2 -5 -4 -9 -7c2 6 3 12 5 17c1 4 1 5 -2 7c-4 3 -8 6 -14 10h18c3 0 4 2 5 5c1 5 4 10 6 16zM150 7c-5 -4 -8 -6 -12 -8
c-5 -3 -6 -7 -4 -12c2 -4 2 -8 4 -14c-6 4 -10 8 -14 11c-2 2 -4 2 -6 0c-4 -4 -9 -7 -15 -11c2 6 3 11 5 15c2 5 1 7 -4 10c-4 2 -7 5 -12 9h17c4 0 5 2 6 5c1 5 4 9 6 16c2 -6 4 -11 5 -16c1 -3 2 -5 6 -5h18zM71 41c-7 5 -11 10 -17 11s-10 -6 -15 -9h-2l-1 1
c7 17 8 16 -7 27c-1 1 -3 2 -3 4c5 0 11 -1 16 -1c4 0 5 2 6 5c1 5 4 10 6 16c2 -6 4 -11 5 -16c1 -4 2 -5 6 -5c5 0 11 1 17 1c-3 -4 -8 -7 -12 -10s-5 -5 -3 -10c2 -4 2 -8 4 -14zM353 40c2 7 4 13 6 18c1 3 0 4 -2 6c-5 3 -9 7 -15 11c7 0 13 -1 18 -1c3 0 5 2 6 5
c1 5 3 9 5 16c2 -6 4 -10 5 -14c1 -6 4 -8 9 -7c4 0 9 1 15 1c-5 -4 -10 -7 -14 -10c-4 -2 -4 -5 -2 -9s3 -9 3 -14c-5 2 -8 6 -12 9c-3 2 -5 2 -8 0c-4 -4 -8 -7 -14 -11zM378 132c2 8 6 14 5 20s-10 8 -16 14c5 0 10 1 14 0c6 -1 9 1 10 7c1 4 2 9 4 14c1 -3 2 -5 3 -7
c5 -14 4 -14 19 -14h7c-6 -4 -10 -7 -14 -10c-3 -2 -3 -4 -2 -7c2 -5 3 -11 5 -17c-6 4 -10 8 -14 11c-2 2 -5 2 -7 0c-4 -4 -9 -7 -14 -11zM58 166c-6 -4 -10 -7 -14 -10c-3 -2 -3 -3 -2 -7c2 -5 3 -10 4 -16c-5 4 -9 7 -13 10c-3 2 -5 1 -8 -1c-4 -3 -9 -6 -14 -10
c2 7 4 12 6 17c1 3 0 5 -2 7c-5 3 -9 6 -15 10h16c5 -1 7 1 8 6s3 9 5 15c2 -5 3 -10 4 -14c1 -5 4 -8 10 -7c4 1 9 0 15 0zM387 225v0c-5 4 -10 9 -15 10c-6 1 -10 -6 -15 -9c-1 0 -2 0 -4 -1c2 6 3 10 5 15c1 4 1 6 -2 8c-4 3 -8 6 -14 10h18c3 0 5 1 6 4c1 5 3 11 5 17
c2 -6 3 -10 4 -14c1 -6 5 -8 11 -7h14c-6 -4 -10 -8 -15 -11c-3 -2 -3 -3 -2 -6c2 -5 4 -10 4 -16zM83 258c-6 -4 -11 -8 -15 -11c-3 -2 -3 -3 -2 -6c2 -5 3 -11 5 -17c-5 4 -10 7 -14 10c-2 2 -5 2 -7 0c-4 -3 -8 -7 -14 -9c2 7 7 14 5 19s-9 9 -15 13c6 1 11 1 16 1
c3 0 5 1 6 4c1 5 4 10 6 17c2 -6 4 -12 5 -17c1 -3 2 -4 6 -4h18zM121 346c2 -5 2 -8 3 -11c3 -10 4 -10 15 -10h10c-6 -4 -10 -8 -14 -11c-3 -2 -3 -3 -2 -6c2 -5 5 -11 5 -17c-11 10 -21 15 -32 2c-1 -1 -2 -1 -3 0c2 6 6 13 5 18c-1 6 -10 8 -15 13c6 1 11 1 16 1
c3 0 5 1 6 4c1 5 4 10 6 17zM230 315c-6 5 -11 11 -17 12c-6 2 -10 -6 -15 -9c-1 0 -1 0 -3 -1c2 6 3 10 5 15c1 3 1 5 -2 7c-4 3 -9 6 -15 10h18c3 0 5 1 6 4c1 5 3 10 5 17c2 -7 5 -11 6 -16c1 -3 2 -5 6 -5h17c-5 -4 -9 -6 -13 -9c-3 -2 -5 -5 -3 -9c2 -5 3 -10 5 -16z
M275 325h18c3 0 4 0 5 3c2 5 4 11 6 18c2 -6 4 -10 5 -15c1 -4 3 -7 8 -6s9 0 16 0c-6 -4 -11 -8 -15 -11c-3 -2 -3 -3 -2 -6c2 -5 5 -10 5 -16l-9 6c-11 7 -6 6 -17 -1c-2 -2 -5 -3 -8 -5c0 5 1 8 3 11c3 6 2 11 -4 14c-3 2 -7 5 -11 8zM206 -16c2 6 3 12 6 20
c3 -8 5 -14 7 -20c5 -2 11 0 16 -1c2 0 4 1 4 -2c-5 -4 -11 -6 -14 -11c-2 -5 3 -11 4 -17v-3l-12 9c-3 3 -6 2 -9 -1c-4 -3 -8 -5 -12 -8l-1 1c7 19 7 19 -10 30c0 3 3 2 5 2c5 1 11 -1 16 1zM206 -16c-3 -3 -7 -1 -11 -2c-3 -1 -7 1 -10 -1c0 2 0 2 2 2c6 0 13 1 19 1z
M239 -19c-4 2 -9 0 -14 1c-2 0 -4 0 -6 2c6 0 12 -1 18 -1c1 0 5 1 2 -2z" />
    <glyph glyph-name="uniF107" unicode="&#xf107;" 
d="M384 448c18 0 35 -3 50 -10s28 -16 40 -28s21 -25 28 -40s10 -32 10 -50v-256c0 -18 -3 -33 -10 -49s-16 -29 -28 -41s-25 -21 -40 -28s-32 -10 -50 -10h-256c-18 0 -35 3 -50 10s-28 16 -40 28s-21 25 -28 41s-10 31 -10 49v256c0 18 3 35 10 50s16 28 28 40
s25 21 40 28s32 10 50 10h256zM352 336h-54c-11 0 -20 -1 -29 -5s-17 -9 -24 -15s-11 -12 -15 -20s-6 -16 -6 -24v-32h-48v-64h48v-128h64v128h48v64h-48v16c0 5 2 9 6 12s7 4 10 4h48v64z" />
    <glyph glyph-name="uniF108" unicode="&#xf108;" horiz-adv-x="497" 
d="M349 184l-2 -1l-1 -2c2 -9 5 -5 5 2c0 2 -2 1 -2 1zM351 183l94 70v-245c0 -1 1 -1 2 -1h48v-47h-493v47h49c1 0 1 0 1 1l-1 306h97v-132c0 -1 1 -2 2 -2v1l97 72v-71c0 -1 1 -2 2 -2v1l97 72c0 -18 3 -53 3 -69zM351 186c0 18 -2 54 -2 70v0c0 1 -1 1 -2 1l-97 -73v72v0
c0 1 -1 1 -2 1l-97 -73v131c0 1 0 1 -1 1h-100c-1 0 -2 0 -2 -1l1 -305h-48c-1 0 -1 -1 -1 -2v-49c0 -1 0 -1 1 -1h495c1 0 1 0 1 1v49c0 1 0 2 -1 2h-48v246v0c0 1 -1 1 -2 1zM496 -41h-495v49h50l-1 307h100v-133l99 74v-74l99 74c0 -25 6 -99 0 -74l99 74v-248h49v-49z
M95 326c24 47 124 -25 149 99l-1 1c-1 0 -1 1 -1 0c-73 -97 -149 24 -149 -100v0c1 -2 2 0 2 0zM95 331c2 113 71 -3 145 89c-26 -113 -116 -46 -145 -89zM94 326c0 124 75 0 149 99c-25 -124 -124 -50 -149 -99v0z" />
    <glyph glyph-name="uniF109" unicode="&#xf109;" horiz-adv-x="420" 
d="M96 -14v10l-10 4l10 8l13 55l3 46l21 -29l-6 25l-14 8l-4 16l5 8l-5 3l4 5l-27 21l-9 16h5l5 9l-10 5h-10l8 12l-19 2l-20 11l-15 13l-9 -10l-12 13l15 4l-2 12l-13 5l21 12l20 -4l1 10h18l11 -13l15 -4l8 3l18 -4l-7 13l-1 25l-10 11l4 5h25l-3 -19l9 1l14 -5l15 1l10 6
l-4 8l4 8l37 14l5 12v31l15 5h8l10 -8l4 -12l10 9l7 -13l12 2v-14l11 4l2 -19l11 1l11 13v-22l12 -4l10 -11l11 2l6 -4l9 2l16 -13l9 1l17 -7l19 -2l-12 -21l-4 -23v-23l-7 -9l-7 7l-7 -9l4 -7l-14 -14l-3 -11l-16 -14v-22l11 3l3 14h14l8 -20l-7 -12l11 -19l-15 -7l5 -12
l12 -8l-7 -16l9 -17l22 5l-3 -19l-18 -6l-12 -24l-17 -9l-25 9l-10 12l-9 -7l-15 -1l-24 9l-18 -14l-10 -2l-3 -14l4 -27h-31l-7 -5l-12 8l-5 10l-18 1l-9 8l-6 -7l-22 1l-12 9l-11 -5l-7 10l-15 1z" />
    <glyph glyph-name="uniF10A" unicode="&#xf10a;" 
d="M384 448c18 0 35 -3 50 -10s28 -16 40 -28s21 -25 28 -40s10 -32 10 -50v-256c0 -18 -3 -33 -10 -49s-16 -29 -28 -41s-25 -21 -40 -28s-32 -10 -50 -10h-256c-18 0 -35 3 -50 10s-28 16 -40 28s-21 25 -28 41s-10 31 -10 49v256c0 18 3 35 10 50s16 28 28 40
s25 21 40 28s32 10 50 10h256zM270 60c18 16 28 34 28 55c0 13 -3 24 -9 33s-13 16 -20 22s-14 12 -20 17s-9 11 -9 17c0 7 3 13 9 19s12 11 19 18c4 4 8 11 11 18s4 16 4 26c0 6 -1 11 -2 16s-4 11 -6 17c-5 10 -12 18 -21 24h26l26 15h-85c-6 0 -11 0 -17 -1
s-13 -2 -19 -3c-18 -4 -33 -12 -45 -27c-12 -14 -18 -31 -18 -49c0 -20 7 -35 20 -47c14 -13 30 -19 49 -19h7h8c0 -1 -1 -2 -2 -4s-2 -3 -2 -4c-1 -3 -1 -6 -1 -8c0 -9 4 -19 12 -29c-19 0 -38 -4 -59 -10c-11 -3 -20 -8 -28 -14s-14 -13 -18 -21c-5 -9 -8 -18 -8 -26
c0 -11 3 -21 9 -29s13 -13 22 -18s19 -8 29 -10s20 -4 29 -4c34 0 61 9 81 26zM423 307h-49v50h-25v-50h-50v-24h50v-50h25v50h49v24zM245 265c0 -13 -2 -23 -8 -31s-14 -12 -27 -12c-9 0 -16 3 -23 8s-13 11 -17 19s-8 16 -10 25s-4 17 -4 24c0 13 3 24 10 32
c7 9 16 13 28 13c9 0 16 -3 23 -8s12 -12 16 -20c8 -17 12 -34 12 -50zM262 119c2 -2 3 -4 4 -6s1 -5 2 -7s1 -5 1 -8c0 -9 -1 -16 -5 -22s-9 -11 -15 -14s-12 -5 -19 -7s-15 -3 -22 -3c-8 0 -17 1 -25 3s-16 5 -23 9s-13 9 -18 16s-7 15 -7 24c0 12 4 22 11 29s16 12 27 15
c14 4 27 6 41 6h10l5 -4c4 -2 6 -4 7 -5l6 -4c3 -2 4 -4 6 -5l5 -5c2 -2 4 -3 5 -5s2 -5 4 -7z" />
    <glyph glyph-name="uniF10B" unicode="&#xf10b;" horiz-adv-x="492" 
d="M246 -66c19 19 131 130 200 199c62 62 60 153 4 209s-148 56 -204 0c-56 56 -148 56 -204 0s-57 -147 5 -209z" />
    <glyph glyph-name="uniF10C" unicode="&#xf10c;" 
d="M283 199c-5 -4 -9 -8 -11 -12c-5 -4 -11 -8 -18 -11s-14 -5 -22 -5c-10 0 -19 3 -28 7l-44 -18l14 52c-3 8 -5 16 -5 23c0 9 2 17 5 25s8 14 14 20s12 11 20 14s15 5 24 5s16 -2 24 -5s14 -8 20 -14s10 -12 13 -20s5 -16 5 -25c0 -14 -4 -26 -11 -36zM384 448
c18 0 35 -3 50 -10s28 -16 40 -28s21 -25 28 -40s10 -32 10 -50v-256c0 -18 -3 -33 -10 -49s-16 -29 -28 -41s-25 -21 -40 -28s-32 -10 -50 -10h-256c-18 0 -35 3 -50 10s-28 16 -40 28s-21 25 -28 41s-10 31 -10 49v256c0 18 3 35 10 50s16 28 28 40s25 21 40 28
s32 10 50 10h256zM351 95c10 5 18 13 24 23s9 21 9 33c0 9 -2 17 -5 25s-7 14 -13 20s-11 10 -19 13s-16 5 -25 5h-1h-1c2 8 3 16 3 23c0 13 -2 25 -7 37s-12 21 -20 30s-19 15 -30 20s-22 8 -35 8s-26 -3 -37 -8s-21 -11 -29 -20s-14 -18 -19 -30s-8 -24 -8 -37
c0 -14 3 -27 8 -38l-18 -70l65 21c6 -2 12 -5 18 -6s13 -2 20 -2c11 0 20 2 30 6c1 -14 6 -27 15 -38s20 -17 33 -20l28 -37zM322 185c9 0 17 -4 23 -10s9 -14 9 -23c0 -7 -1 -12 -4 -17s-7 -9 -12 -12l-9 -24l-12 20c-8 2 -14 6 -19 12s-7 13 -7 21c0 6 1 12 4 18l4 3
c1 1 2 3 3 5c6 5 13 7 20 7z" />
    <glyph glyph-name="uniF10D" unicode="&#xf10d;" horiz-adv-x="582" 
d="M450 285h-142v99h-35v-99h-141l-132 -273s29 -76 134 -76s134 76 134 76l-121 250h288l-121 -250s29 -76 134 -76s134 76 134 76zM242 12h-216l108 223zM340 12l108 223l108 -223h-216z" />
    <glyph glyph-name="uniF10E" unicode="&#xf10e;" horiz-adv-x="366" 
d="M219 67c5 0 9 -4 9 -9s-4 -10 -9 -10h-73c-5 0 -9 5 -9 10s4 9 9 9h73zM217 36c5 0 10 -4 10 -9s-5 -9 -10 -9h-69c-5 0 -9 4 -9 9s4 9 9 9h69zM149 6h68c-19 -17 -21 -20 -28 -20h-13c-7 0 -9 3 -27 20zM287 226c0 -62 -53 -97 -53 -146h-24c0 61 53 92 53 146
c0 101 -160 101 -160 0c0 -54 52 -84 53 -146h-24c0 49 -54 84 -54 146c0 134 209 134 209 0zM196 353h-25v45h25v-45zM282 374l-22 -41l-22 12l22 41zM346 312l-40 -29l-15 21l41 28zM351 154l-10 -23l-45 18l9 23zM366 242v-25h-52v25h52zM128 345l-22 -12l-22 41l22 12z
M74 304l-14 -21l-41 29l15 20zM70 151l-45 -20l-10 23l45 20zM51 242v-25h-51v25h51z" />
    <glyph glyph-name="uniF10F" unicode="&#xf10f;" 
d="M384 448c18 0 35 -3 50 -10s28 -16 40 -28s21 -25 28 -40s10 -32 10 -50v-256c0 -18 -3 -33 -10 -49s-16 -29 -28 -41s-25 -21 -40 -28s-32 -10 -50 -10h-256c-18 0 -35 3 -50 10s-28 16 -40 28s-21 25 -28 41s-10 31 -10 49v256c0 18 3 35 10 50s16 28 28 40
s25 21 40 28s32 10 50 10h256zM176 256h-64v-208h64v208zM144 272c9 0 17 4 23 10s9 13 9 22s-3 17 -9 23s-14 9 -23 9s-17 -3 -23 -9s-9 -14 -9 -23s3 -16 9 -22s14 -10 23 -10zM400 168c0 15 -4 30 -12 44s-19 25 -32 32c-12 7 -25 10 -41 10s-30 -2 -43 -8v10h-64v-208
h64v127l27 13c3 2 7 2 13 2s10 -1 13 -3c2 -1 5 -4 7 -8s4 -8 4 -11v-120h64v120z" />
    <glyph glyph-name="uniF110" unicode="&#xf110;" horiz-adv-x="215" 
d="M107 397c59 0 108 -49 108 -108s-48 -128 -108 -231c-60 103 -107 172 -107 231s48 108 107 108zM107 253c21 0 39 18 39 39s-18 38 -39 38s-38 -17 -38 -38s17 -39 38 -39zM165 8c0 -11 -26 -21 -58 -21s-57 10 -57 21s25 21 57 21s58 -10 58 -21z" />
    <glyph glyph-name="uniF111" unicode="&#xf111;" horiz-adv-x="583" 
d="M387 188c0 0 -3 -12 -4 -13s-4 -6 -3 -6s8 -4 8 -4l30 -9l-1 -14c-3 0 -12 -7 -14 -10c-1 -2 -3 -6 -5 -9c27 -11 42 -26 43 -44c0 -3 17 -62 18 -75h124c0 1 -4 76 -4 77c0 0 -7 18 -18 20s-26 5 -32 10c-4 3 -15 7 -20 9c-2 1 -8 9 -9 12s-11 10 -14 10v14l29 9
s7 4 8 4s-3 6 -4 7s-3 12 -3 12s10 -13 15 -15c0 0 -10 19 -13 29s-5 27 -5 28s-6 46 -9 53s-8 16 -16 21s-19 12 -36 13v0h-1c-17 -1 -28 -8 -36 -13s-12 -14 -15 -21s-10 -51 -10 -53c0 -1 -2 -18 -5 -28s-13 -29 -13 -29c5 2 15 15 15 15zM131 67v1v1c8 35 49 51 72 61v0
c-14 6 -21 11 -24 12c-1 3 -5 24 -5 24s17 15 21 43c0 0 8 -5 8 12c0 13 3 18 -6 22c0 0 1 10 1 18c0 12 3 28 -18 42c-3 2 -18 10 -18 10c-5 3 -13 6 -13 6v-5l-1 1c-1 1 -2 7 -2 9l1 4c-10 -7 -17 -17 -17 -17l1 9s-2 -3 -25 -17c-22 -14 -18 -34 -17 -46
c0 -8 1 -14 1 -14c-9 -4 -4 -9 -4 -22c0 -18 9 -15 9 -15c4 -25 18 -40 18 -40s-5 -21 -6 -24c-4 -1 -13 -8 -33 -16c-29 -12 -19 -5 -43 -17c-37 -19 -30 -97 -30 -97h118zM452 -39c0 22 -25 117 -25 117c0 14 -18 29 -54 38c-19 5 -34 16 -34 16c-2 1 -2 13 -2 13l-11 2
c0 1 -1 15 -1 15c14 5 12 32 12 32c9 -5 14 16 14 16c10 30 -5 28 -5 28c5 22 0 55 0 55c-7 60 -110 44 -98 24c-30 6 -23 -63 -23 -63l6 -17c-13 -8 -3 -18 -3 -30c1 -17 11 -14 11 -14c1 -28 15 -32 15 -32c3 -18 1 -14 1 -14l-13 -2c1 -4 -1 -12 -1 -12
c-15 -6 -17 -10 -32 -16c-28 -12 -59 -29 -64 -50s-22 -106 -22 -106h329v0z" />
    <glyph glyph-name="uniF112" unicode="&#xf112;" 
d="M68 73c38 0 68 -32 68 -69c0 -38 -30 -67 -68 -67s-68 29 -68 67c0 37 30 69 68 69zM0 274c186 0 338 -152 338 -338h-99c0 64 -25 125 -70 170s-105 70 -169 70v98zM0 448c282 0 512 -230 512 -512h-98c0 228 -186 414 -414 414v98z" />
    <glyph glyph-name="uniF113" unicode="&#xf113;" horiz-adv-x="448" 
d="M0 384v-168c0 -112 112 -280 224 -280s224 168 224 280v168h-33c-12 -33 -42 -56 -79 -56s-67 23 -79 56h-66c-12 -33 -42 -56 -79 -56s-67 23 -79 56h-33z" />
    <glyph glyph-name="uniF114" unicode="&#xf114;" horiz-adv-x="412" 
d="M313 160v-164h-111v164h111zM30 231h353v-235h-40v195h-273v-155h102v-40h-142v235zM171 388l-18 -85v0v-17c0 -18 -15 -34 -33 -34s-34 16 -34 34v17l51 85h34zM118 388l-52 -85v-17c0 -18 -15 -34 -33 -34s-33 16 -33 34v17l84 85h34zM412 303v-17
c0 -18 -15 -34 -33 -34s-33 16 -33 34v17l-52 85h34zM239 303v0v-17c0 -18 -15 -34 -33 -34s-33 16 -33 34v17v0l17 85h32zM275 388l51 -85v-17c0 -18 -16 -34 -34 -34s-33 16 -33 34v17v0l-18 85h34z" />
    <glyph glyph-name="uniF115" unicode="&#xf115;" horiz-adv-x="412" 
d="M206 398c114 0 206 -92 206 -206s-92 -206 -206 -206s-206 92 -206 206s92 206 206 206zM272 275c-19 0 -34 -15 -34 -34s15 -34 34 -34s34 15 34 34s-15 34 -34 34zM144 275c-19 0 -34 -15 -34 -34s15 -34 34 -34s34 15 34 34s-15 34 -34 34zM208 82c55 0 96 36 118 70
l-10 10c-30 -23 -62 -38 -108 -38s-78 15 -108 38l-10 -10c22 -34 63 -70 118 -70z" />
    <glyph glyph-name="uniF116" unicode="&#xf116;" horiz-adv-x="412" 
d="M206 358c-44 0 -86 -18 -117 -49s-49 -73 -49 -117s18 -86 49 -117s73 -49 117 -49s86 18 117 49s49 73 49 117s-18 86 -49 117s-73 49 -117 49zM206 398c114 0 206 -92 206 -206s-92 -206 -206 -206s-206 92 -206 206s92 206 206 206zM206 277c-47 0 -85 -38 -85 -85
s38 -85 85 -85s85 38 85 85s-38 85 -85 85zM206 317c69 0 125 -56 125 -125s-56 -125 -125 -125s-125 56 -125 125s56 125 125 125zM206 238c24 0 44 -20 44 -44s-20 -44 -44 -44s-44 20 -44 44s20 44 44 44z" />
    <glyph glyph-name="uniF117" unicode="&#xf117;" 
d="M384 448c18 0 35 -3 50 -10s28 -16 40 -28s21 -25 28 -40s10 -32 10 -50v-256c0 -18 -3 -33 -10 -49s-16 -29 -28 -41s-25 -21 -40 -28s-32 -10 -50 -10h-256c-18 0 -35 3 -50 10s-28 16 -40 28s-21 25 -28 41s-10 31 -10 49v256c0 18 3 35 10 50s16 28 28 40
s25 21 40 28s32 10 50 10h256zM240 112c-8 0 -15 3 -22 10s-10 14 -10 22v48h128c8 0 15 3 22 10s10 14 10 22s-3 15 -10 22s-14 10 -22 10h-128v48c0 8 -3 15 -10 22s-14 10 -22 10s-15 -3 -22 -10s-10 -14 -10 -22v-160c0 -16 3 -30 9 -42s12 -22 21 -30s20 -14 31 -18
s23 -6 35 -6h96c8 0 15 3 22 10s10 14 10 22s-3 15 -10 22s-14 10 -22 10h-96z" />
    <glyph glyph-name="uniF118" unicode="&#xf118;" horiz-adv-x="289" 
d="M171 273v0c0 11 9 20 20 20s21 -9 21 -20v0c0 -11 -10 -21 -21 -21s-20 10 -20 21zM227 294v0c-7 12 -20 20 -35 20c60 100 90 128 95 125s-4 -43 -60 -145zM150 273v0c0 -7 3 -14 6 -20c-116 2 -156 14 -156 20s40 18 156 20c-3 -6 -6 -13 -6 -20zM227 252v0
c56 -102 65 -142 60 -145s-35 26 -95 125c15 0 28 8 35 20zM171 227v-282h41v217c-12 17 -25 39 -41 65z" />
    <glyph glyph-name="uniF119" unicode="&#xf119;" horiz-adv-x="448" 
d="M188 212l-3 5l-3 10l2 3l-1 8l-9 -8l2 -6l2 -9h-4v-5l5 -3zM161 219l2 -7l7 4l2 6l-3 3zM171 259l1 4l-4 4l-8 1l1 -6zM226 299l2 -1l1 4l-3 1l2 5l-10 -5l4 -7zM248 314l-5 2l-4 -3l7 -1zM224 384c-124 0 -224 -100 -224 -224s100 -224 224 -224s224 100 224 224
s-100 224 -224 224zM31 160c0 41 12 79 34 110l3 -2l-2 -6l6 -1l-1 8h5v11h4l2 -4s2 -5 2 -5l5 -6s-6 -1 -8 -1s-1 -8 -1 -8l7 -3l4 9l11 11l5 16l9 9l-5 4l6 4v6l-17 -6l-1 1c10 8 20 16 31 22l8 -4l-5 -10h-11l-2 -10h9l13 8l9 9l2 9l-14 1l9 6l9 -2l-1 -9l11 7l2 -5l3 -8
l-7 -8l-7 -7l-11 1l6 -10l-10 1l-16 -16l4 -6l13 1l11 4l14 1l7 2s0 3 -1 6c0 3 5 0 5 0l6 3l5 14l16 8l-2 4l4 5l-13 2l3 5l-16 6h-9l3 7l4 4h-1c14 3 29 5 44 5c23 0 45 -4 66 -12v-1l-8 1v-5l3 -3v-4l3 -4l-10 6l-7 -3l3 -8l2 -9l4 -5l11 -2l-2 -4l-2 -7l9 -6v-3l-18 15
l-1 -5l7 -8l5 -2l-10 -2l-1 -5l-8 7l-4 10l-2 9l-4 -5l3 -14l6 -4l-2 -13l-4 2l1 -7l-5 1l-5 7h-7l-8 1h-9l-9 -7l-5 -9l-12 -9l-1 -5v-7l3 -6l5 5l2 -4l3 -5v-1l3 -3l5 3l-1 13l7 7v3s1 5 1 5l2 6l4 -1l-1 -5l-2 -11l11 1l4 -1l-9 -2l1 -6l-9 -6v-6l-8 -2l-2 -5l-6 2h-5v10
l-5 -2v-5l-14 -11l-8 -3l-3 -4l-11 3l-1 -5l7 -3v-10l-20 1l-3 -5l-3 -8l-3 -6l5 -6l5 -7l18 6l1 7l4 3l7 2v5l6 1l9 2l5 -7l10 -7l5 -7v-3l5 3l-2 5l1 6l-5 2l-5 6l3 9l5 -7l7 -6l3 -10l7 -6l2 -6l3 7l-1 4l2 3l11 9l2 11l4 3h6l8 8l1 -7l12 -4v-6h-10l-15 -8l-12 -6l3 -8
l11 -2l6 -3l7 5l1 -19l-19 -4l-21 5l-7 -6l3 -3l-6 1l-20 7h-5l-5 7v9h-10l-5 1l-18 -4l-14 1l-7 -3l-3 -1l-3 -7l-13 -9l-17 -13l-2 -18l-5 -11l1 -6l4 -8l13 -22l14 -6l22 -2l-1 10l-5 2l2 5l4 -4l4 -12l17 -1l7 -7l9 -4l1 -16l10 -13l10 -16l-9 -11l9 -13
c-103 4 -186 89 -186 193zM290 -21l23 17l-8 20l27 35l8 23l4 12l-14 -7l-8 -1l-21 13l-6 14l-8 7l-10 23l9 -7l15 -17l6 -8l11 -6l3 -14l14 9l16 20l8 21l-6 5l-4 6l-4 -7l-7 -9l-12 12l-3 9l8 -1l8 -4l11 4l7 -3l17 13l11 -6l6 4l13 -22l7 7v8v24l4 11c1 -8 2 -16 2 -24
c0 -83 -53 -154 -127 -181z" />
  </font>
</defs>
</svg>
